<svg width="1200" height="900" viewBox="0 0 1200 900" fill="none" xmlns="http://www.w3.org/2000/svg">
  <defs>
    <linearGradient id="bg" x1="96" y1="84" x2="1100" y2="826" gradientUnits="userSpaceOnUse">
      <stop stop-color="#F7E9DF"/>
      <stop offset="1" stop-color="#D9A493"/>
    </linearGradient>
    <linearGradient id="card" x1="268" y1="208" x2="932" y2="712" gradientUnits="userSpaceOnUse">
      <stop stop-color="#FFFFFF" stop-opacity="0.82"/>
      <stop offset="1" stop-color="#FFFFFF" stop-opacity="0.35"/>
    </linearGradient>
  </defs>
  <rect width="1200" height="900" rx="48" fill="url(#bg)"/>
  <circle cx="990" cy="168" r="130" fill="#FFFFFF" fill-opacity="0.22"/>
  <circle cx="172" cy="728" r="180" fill="#8D5D58" fill-opacity="0.16"/>
  <rect x="190" y="158" width="820" height="584" rx="42" fill="url(#card)" stroke="#FFFFFF" stroke-opacity="0.35"/>
  <rect x="260" y="226" width="300" height="360" rx="28" fill="#F8EEE7"/>
  <rect x="602" y="226" width="338" height="140" rx="24" fill="#F6E7DD"/>
  <rect x="602" y="390" width="338" height="196" rx="24" fill="#F3DDD1"/>
  <path d="M330 296C353 296 372 315 372 338V478C372 501 353 520 330 520C307 520 288 501 288 478V338C288 315 307 296 330 296Z" fill="#D99B8E" fill-opacity="0.8"/>
  <path d="M329 278C358 278 382 302 382 332C382 362 358 386 329 386C300 386 276 362 276 332C276 302 300 278 329 278Z" fill="#8D5D58" fill-opacity="0.65"/>
  <path d="M700 268C742 268 776 302 776 344C776 386 742 420 700 420C658 420 624 386 624 344C624 302 658 268 700 268Z" fill="#C88474" fill-opacity="0.8"/>
  <path d="M833 268C875 268 909 302 909 344C909 386 875 420 833 420C791 420 757 386 757 344C757 302 791 268 833 268Z" fill="#E5C0B1"/>
  <path d="M650 456H892" stroke="#8D5D58" stroke-opacity="0.32" stroke-width="18" stroke-linecap="round"/>
  <path d="M650 510H856" stroke="#8D5D58" stroke-opacity="0.22" stroke-width="18" stroke-linecap="round"/>
  <path d="M650 564H920" stroke="#8D5D58" stroke-opacity="0.16" stroke-width="18" stroke-linecap="round"/>
  <text x="600" y="760" text-anchor="middle" fill="#5E433F" font-family="Arial, sans-serif" font-size="44" font-weight="700">ZELIT</text>
  <text x="600" y="806" text-anchor="middle" fill="#5E433F" fill-opacity="0.85" font-family="Arial, sans-serif" font-size="22" font-weight="600">Coloca aquí tus fotos</text>
</svg>